<mxfile host="app.diagrams.net" modified="2023-08-23T15:16:41.313Z" agent="Mozilla/5.0 (Windows NT 10.0; Win64; x64) AppleWebKit/537.36 (KHTML, like Gecko) Chrome/116.0.0.0 Safari/537.36 Edg/116.0.1938.54" etag="avAj5JYCIK5eyfyCeqhq" version="21.6.9" type="device">
  <diagram name="PÃ¡gina-1" id="wLi_LV9Frbc9vb42sMzV">
    <mxGraphModel dx="1386" dy="747" grid="1" gridSize="10" guides="1" tooltips="1" connect="1" arrows="1" fold="1" page="1" pageScale="1" pageWidth="827" pageHeight="1169" math="0" shadow="0">
      <root>
        <mxCell id="0" />
        <mxCell id="1" parent="0" />
        <mxCell id="8XDq7-sIb2-V3TYy2qNQ-3" value="" style="swimlane;startSize=0;" vertex="1" parent="1">
          <mxGeometry x="20" y="330" width="240" height="215" as="geometry" />
        </mxCell>
        <mxCell id="8XDq7-sIb2-V3TYy2qNQ-1" value="HTML CSS&lt;br&gt;JavaScript" style="html=1;dropTarget=0;whiteSpace=wrap;" vertex="1" parent="8XDq7-sIb2-V3TYy2qNQ-3">
          <mxGeometry x="30" y="80" width="180" height="90" as="geometry" />
        </mxCell>
        <mxCell id="8XDq7-sIb2-V3TYy2qNQ-2" value="" style="shape=module;jettyWidth=8;jettyHeight=4;" vertex="1" parent="8XDq7-sIb2-V3TYy2qNQ-1">
          <mxGeometry x="1" width="20" height="20" relative="1" as="geometry">
            <mxPoint x="-27" y="7" as="offset" />
          </mxGeometry>
        </mxCell>
        <mxCell id="8XDq7-sIb2-V3TYy2qNQ-4" value="Client Tier" style="text;html=1;align=center;verticalAlign=middle;resizable=0;points=[];autosize=1;strokeColor=none;fillColor=none;" vertex="1" parent="1">
          <mxGeometry x="100" y="338" width="80" height="30" as="geometry" />
        </mxCell>
        <mxCell id="8XDq7-sIb2-V3TYy2qNQ-5" value="" style="swimlane;startSize=0;" vertex="1" parent="1">
          <mxGeometry x="300" y="330" width="240" height="215" as="geometry" />
        </mxCell>
        <mxCell id="8XDq7-sIb2-V3TYy2qNQ-6" value="HTML CSS&lt;br&gt;JavaScript" style="html=1;dropTarget=0;whiteSpace=wrap;" vertex="1" parent="8XDq7-sIb2-V3TYy2qNQ-5">
          <mxGeometry x="30" y="80" width="180" height="90" as="geometry" />
        </mxCell>
        <mxCell id="8XDq7-sIb2-V3TYy2qNQ-7" value="" style="shape=module;jettyWidth=8;jettyHeight=4;" vertex="1" parent="8XDq7-sIb2-V3TYy2qNQ-6">
          <mxGeometry x="1" width="20" height="20" relative="1" as="geometry">
            <mxPoint x="-27" y="7" as="offset" />
          </mxGeometry>
        </mxCell>
        <mxCell id="8XDq7-sIb2-V3TYy2qNQ-8" value="Web Tier" style="text;html=1;align=center;verticalAlign=middle;resizable=0;points=[];autosize=1;strokeColor=none;fillColor=none;" vertex="1" parent="1">
          <mxGeometry x="385" y="338" width="70" height="30" as="geometry" />
        </mxCell>
        <mxCell id="8XDq7-sIb2-V3TYy2qNQ-9" value="" style="swimlane;startSize=0;" vertex="1" parent="1">
          <mxGeometry x="910" y="330" width="240" height="215" as="geometry" />
        </mxCell>
        <mxCell id="8XDq7-sIb2-V3TYy2qNQ-19" value="DataBase Tier" style="text;html=1;align=center;verticalAlign=middle;resizable=0;points=[];autosize=1;strokeColor=none;fillColor=none;" vertex="1" parent="8XDq7-sIb2-V3TYy2qNQ-9">
          <mxGeometry x="70" width="100" height="30" as="geometry" />
        </mxCell>
        <mxCell id="8XDq7-sIb2-V3TYy2qNQ-22" value="" style="strokeWidth=2;html=1;shape=mxgraph.flowchart.database;whiteSpace=wrap;" vertex="1" parent="8XDq7-sIb2-V3TYy2qNQ-9">
          <mxGeometry x="70" y="82" width="110" height="78" as="geometry" />
        </mxCell>
        <mxCell id="8XDq7-sIb2-V3TYy2qNQ-23" value="MySQL" style="text;html=1;align=center;verticalAlign=middle;resizable=0;points=[];autosize=1;strokeColor=none;fillColor=none;" vertex="1" parent="8XDq7-sIb2-V3TYy2qNQ-9">
          <mxGeometry x="95" y="120" width="60" height="30" as="geometry" />
        </mxCell>
        <mxCell id="8XDq7-sIb2-V3TYy2qNQ-12" value="Business Logic Tier" style="text;html=1;align=center;verticalAlign=middle;resizable=0;points=[];autosize=1;strokeColor=none;fillColor=none;" vertex="1" parent="1">
          <mxGeometry x="645" y="330" width="130" height="30" as="geometry" />
        </mxCell>
        <mxCell id="8XDq7-sIb2-V3TYy2qNQ-13" value="" style="endArrow=none;html=1;rounded=0;exitX=1;exitY=0.5;exitDx=0;exitDy=0;entryX=0;entryY=0.5;entryDx=0;entryDy=0;" edge="1" parent="1" source="8XDq7-sIb2-V3TYy2qNQ-3" target="8XDq7-sIb2-V3TYy2qNQ-5">
          <mxGeometry width="50" height="50" relative="1" as="geometry">
            <mxPoint x="600" y="640" as="sourcePoint" />
            <mxPoint x="650" y="590" as="targetPoint" />
          </mxGeometry>
        </mxCell>
        <mxCell id="8XDq7-sIb2-V3TYy2qNQ-15" value="" style="endArrow=none;html=1;rounded=0;entryX=0;entryY=0.5;entryDx=0;entryDy=0;exitX=1;exitY=0.5;exitDx=0;exitDy=0;" edge="1" parent="1" source="8XDq7-sIb2-V3TYy2qNQ-5" target="8XDq7-sIb2-V3TYy2qNQ-16">
          <mxGeometry width="50" height="50" relative="1" as="geometry">
            <mxPoint x="540" y="449" as="sourcePoint" />
            <mxPoint x="580" y="448" as="targetPoint" />
          </mxGeometry>
        </mxCell>
        <mxCell id="8XDq7-sIb2-V3TYy2qNQ-16" value="" style="swimlane;startSize=0;" vertex="1" parent="1">
          <mxGeometry x="600" y="332" width="240" height="215" as="geometry" />
        </mxCell>
        <mxCell id="8XDq7-sIb2-V3TYy2qNQ-17" value="Python(Flask)" style="html=1;dropTarget=0;whiteSpace=wrap;" vertex="1" parent="8XDq7-sIb2-V3TYy2qNQ-16">
          <mxGeometry x="30" y="80" width="180" height="90" as="geometry" />
        </mxCell>
        <mxCell id="8XDq7-sIb2-V3TYy2qNQ-18" value="" style="shape=module;jettyWidth=8;jettyHeight=4;" vertex="1" parent="8XDq7-sIb2-V3TYy2qNQ-17">
          <mxGeometry x="1" width="20" height="20" relative="1" as="geometry">
            <mxPoint x="-27" y="7" as="offset" />
          </mxGeometry>
        </mxCell>
        <mxCell id="8XDq7-sIb2-V3TYy2qNQ-20" value="" style="endArrow=none;html=1;rounded=0;entryX=0;entryY=0.544;entryDx=0;entryDy=0;entryPerimeter=0;" edge="1" parent="1" target="8XDq7-sIb2-V3TYy2qNQ-9">
          <mxGeometry width="50" height="50" relative="1" as="geometry">
            <mxPoint x="837" y="448" as="sourcePoint" />
            <mxPoint x="894" y="447" as="targetPoint" />
          </mxGeometry>
        </mxCell>
      </root>
    </mxGraphModel>
  </diagram>
</mxfile>
